<svg width="50" height="50" viewBox="0 0 50 50" fill="none" xmlns="http://www.w3.org/2000/svg">
<path d="M44.6429 0H5.35714C2.39955 0 0 2.39955 0 5.35714V44.6429C0 47.6004 2.39955 50 5.35714 50H44.6429C47.6004 50 50 47.6004 50 44.6429V5.35714C50 2.39955 47.6004 0 44.6429 0ZM18.3036 36.1607C12.1317 36.1607 7.14286 31.1719 7.14286 25C7.14286 18.8281 12.1317 13.8393 18.3036 13.8393C21.317 13.8393 23.8281 14.933 25.7812 16.7634L22.7567 19.6763C21.9308 18.8839 20.4911 17.9576 18.3147 17.9576C14.5089 17.9576 11.4062 21.1049 11.4062 25.0112C11.4062 28.9063 14.5089 32.0647 18.3147 32.0647C22.7344 32.0647 24.3862 28.8839 24.654 27.2545H18.3036V23.4152H28.8393C28.9509 23.9732 29.0179 24.5424 29.0179 25.2679C29.0179 31.6406 24.7433 36.1607 18.3036 36.1607V36.1607ZM42.8571 27.0313H39.6205V30.2679H36.3616V27.0313H33.125V23.7723H36.3616V20.5357H39.6205V23.7723H42.8571V27.0313Z" fill="#E45757"/>
</svg>
