<svg width="42" height="61" viewBox="0 0 42 61" fill="none" xmlns="http://www.w3.org/2000/svg">
<path d="M21 9.53144C14.6833 9.53144 9.54545 14.6617 9.54545 20.9692C9.54545 22.0224 10.3998 22.8754 11.4545 22.8754C12.5093 22.8754 13.3636 22.0224 13.3636 20.9692C13.3636 16.7634 16.7905 13.344 21 13.344C22.0548 13.344 22.9091 12.4909 22.9091 11.4377C22.9091 10.3845 22.0548 9.53144 21 9.53144ZM11.4617 54.7069C11.4617 55.0822 11.5727 55.4479 11.7815 55.7601L14.706 60.1493C15.0603 60.6807 15.6569 61 16.2953 61H25.7035C26.3431 61 26.9397 60.6807 27.2928 60.1493L30.2173 55.7601C30.4249 55.4479 30.5359 55.081 30.5371 54.7069L30.5431 49.5623H11.4569L11.4617 54.7069ZM21 0C8.79614 0 0 9.88529 0 20.9692C0 26.2555 1.96278 31.0784 5.1975 34.7635C7.18295 37.0261 10.2972 41.7691 11.4522 45.7437V45.7509H17.1794V45.7366C17.1782 45.1683 17.0935 44.6035 16.9229 44.0603C16.2559 41.9383 14.2001 36.3434 9.50489 30.9939C7.05409 28.2023 5.74398 24.6614 5.73324 20.9692C5.70937 12.1955 12.853 5.71886 21 5.71886C29.4215 5.71886 36.2727 12.5601 36.2727 20.9692C36.2727 24.659 34.9316 28.219 32.4963 30.9939C27.8298 36.3088 25.7644 41.8919 25.0866 44.0352C24.9117 44.5863 24.8224 45.1609 24.8218 45.739V45.7509H30.549V45.7449C31.704 41.7691 34.8182 37.0261 36.8037 34.7647C40.0372 31.0784 42 26.2555 42 20.9692C42 9.38847 32.5977 0 21 0Z" fill="#BB2525"/>
</svg>
